<?xml version="1.0" standalone="no"?>
<svg xmlns="http://www.w3.org/2000/svg" viewBox="0 0 185.64 29" width="185.64" height="29"><g fill="#8e5232" color="#8e5232" transform="translate(0, 0) scale(0.29)"><svg width="100.0" height="100.0" x="0.0" y="0.0" viewBox="0 0 100 100"><title></title><path d="M91.9,61.37l-14-42a2,2,0,0,0-1.33-1.29l-37-11a2,2,0,0,0-2,.51l-31,31a2,2,0,0,0-.48,2.06l15,44A2,2,0,0,0,22.73,86l36,5L59,91a2,2,0,0,0,1.31-.49l31-27A2,2,0,0,0,91.9,61.37ZM24.44,82,31.6,47.05l33.08,34ZM77.26,31.69,32.33,43.61l7.06-31.75Zm-47,12.12L11.16,39.66,36.88,14ZM66.38,79.92,32.91,45.53,78.38,33.46l.12.35-12,46ZM77,29.29l-30.52-16,28,8.31ZM10.66,41.6l19.16,4.17L23.16,78.26ZM58.37,86.89,35.5,83.72l27.23-.62Zm10.85-9.44L79.66,37.29l8,24.08ZM41.64,35.5a7,7,0,0,1,1.85-3.82,16.93,16.93,0,0,0,1.84-2.58A2.44,2.44,0,0,0,45.4,27a2.67,2.67,0,0,0-1.13-1.28,2.34,2.34,0,0,0-1.74-.21c-.9.2-1.38.64-1.46,1.31a4.35,4.35,0,0,0,.36,1.74l-3,.7a6,6,0,0,1-.42-3c.26-1.51,1.4-2.47,3.4-2.91a6.62,6.62,0,0,1,4.21.31,5.27,5.27,0,0,1,2.73,2.71,3.82,3.82,0,0,1,.21,2.86,7.46,7.46,0,0,1-1.35,2.28l-.85,1.08q-.81,1-1.08,1.47A2.81,2.81,0,0,0,45,35l6.62-1.74,1.11,2.45L42.09,38.6A6.75,6.75,0,0,1,41.64,35.5ZM56.57,21.81A13,13,0,0,1,60,26.36a10.48,10.48,0,0,1,1.47,5.28c-.1,1.4-1.06,2.36-2.87,2.85a5.11,5.11,0,0,1-4.76-.82,13,13,0,0,1-3.53-4.93,9.78,9.78,0,0,1-1.2-5.25c.2-1.3,1.19-2.14,3-2.53A5.18,5.18,0,0,1,56.57,21.81Zm-1.26,9.66a2.13,2.13,0,0,0,2.25.81,1.29,1.29,0,0,0,1-1.66,13.72,13.72,0,0,0-1.33-3.57,15,15,0,0,0-2.06-3.34A2.09,2.09,0,0,0,53.07,23,1.24,1.24,0,0,0,52,24.46,12.67,12.67,0,0,0,53.23,28,15.33,15.33,0,0,0,55.31,31.47Z"></path></svg></g><line x1="41" y1="1" x2="41" y2="28" stroke="#99b051" stroke-linecap="round"></line><path fill="#99b051" fill-rule="nonzero" d="M13.10 0L13.10 0Q13.61 0 13.80 0.72L13.80 0.72Q13.66 3.14 13.49 4.16Q13.32 5.18 13.21 5.95Q13.10 6.72 13.07 7.01Q13.03 7.30 12.86 8.18Q12.70 9.07 12.52 9.95Q12.34 10.82 12.30 10.99Q12.26 11.16 11.86 13.14Q11.45 15.12 11.24 15.56Q11.04 16.01 10.55 16.01Q10.06 16.01 9.77 15.72L9.77 15.72Q8.66 14.21 7.68 11.98L7.68 11.98Q7.44 11.40 7.14 10.73Q6.84 10.06 6.70 9.72L6.70 9.72L6.48 9.22Q5.98 10.08 5.09 12.14Q4.20 14.21 3.53 15.46L3.53 15.46Q3.10 16.01 2.57 16.01L2.57 16.01Q1.46 16.01 0.89 10.13L0.89 10.13Q0.89 10.10 0.85 9.86Q0.82 9.62 0.76 9.02Q0.70 8.42 0.61 7.69Q0.53 6.96 0 1.63L0 1.63Q0 1.15 0.36 0.76Q0.72 0.36 1.15 0.36L1.15 0.36Q1.68 0.36 1.87 1.06L1.87 1.06Q2.52 8.86 3.17 12.58L3.17 12.58Q3.36 12.24 4.15 10.36Q4.94 8.47 5.59 7.36Q6.24 6.24 6.84 6.24L6.84 6.24Q7.25 6.24 7.54 6.67L7.54 6.67Q9.05 10.97 10.13 12.72L10.13 12.72Q10.15 12.46 10.42 11.28L10.42 11.28L10.73 9.74Q10.73 9.60 10.79 9.34Q10.85 9.07 10.88 8.82Q10.92 8.57 10.97 8.35L10.97 8.35L11.23 6.84Q11.81 3.29 11.95 1.01L11.95 1.01Q12.05 0.60 12.40 0.30Q12.74 0 13.10 0ZM16.99 10.61L16.99 10.61L17.04 13.75Q17.04 14.38 17.02 14.42L17.02 14.42L21.17 14.35Q21.86 14.42 21.86 14.95L21.86 14.95Q21.86 15.96 20.93 15.96L20.93 15.96L16.22 16.01Q15.79 16.01 15.59 15.71Q15.38 15.41 15.36 15.07Q15.34 14.74 15.34 14.33L15.34 14.33L15.34 10.34Q15.02 10.18 15.02 9.84Q15.02 9.50 15.29 9.24L15.29 9.24Q15.22 7.37 15.22 5.83L15.22 5.83Q15.22 4.94 16.30 4.92L16.30 4.92Q16.58 4.92 16.97 4.92L16.97 4.92L21.17 4.99L21.19 4.99Q21.96 5.09 21.96 5.71L21.96 5.71Q21.96 6.19 21.67 6.36L21.67 6.36Q21.05 6.70 18.67 6.70L18.67 6.70Q17.78 6.70 16.90 6.62L16.90 6.62Q16.90 8.78 16.92 9.05L16.92 9.05Q17.86 9.07 20.59 9.07L20.59 9.07Q21.34 9.17 21.34 9.74L21.34 9.74Q21.34 10.03 21.10 10.30Q20.86 10.56 20.58 10.60Q20.30 10.63 19.40 10.63Q18.50 10.63 16.99 10.61ZM24.17 8.83Q24.17 6.67 24.70 5.78Q25.22 4.90 26.86 4.90Q28.49 4.90 29.53 5.68Q30.58 6.46 30.58 7.73Q30.58 9 29.83 9.77L29.83 9.77Q30.67 9.96 31.22 10.81Q31.78 11.66 31.78 12.60L31.78 12.60Q31.78 14.14 30.70 15.19L30.70 15.19Q29.93 16.01 24.26 16.01L24.26 16.01Q24.26 15.89 24.24 14.98L24.24 14.98Q24.17 12.24 24.17 8.83L24.17 8.83ZM25.85 7.61L25.85 7.61L25.85 9.65Q27.17 9.65 28.14 9.20Q29.11 8.76 29.11 7.73L29.11 7.73Q29.11 7.15 28.54 6.78Q27.96 6.41 27.17 6.41Q26.38 6.41 26.11 6.70Q25.85 6.98 25.85 7.61ZM28.30 10.92L28.30 10.92Q27.19 10.92 25.82 11.11L25.82 11.11Q25.80 11.62 25.80 12.47Q25.80 13.32 25.92 14.54L25.92 14.54Q26.11 14.54 26.62 14.54Q27.12 14.54 28.10 14.40L28.10 14.40Q30.29 14.04 30.29 12.60L30.29 12.60Q30.29 10.92 28.30 10.92ZM43.37 0.46L43.37 0.46L46.03 0.41Q47.81 0.41 47.81 1.34L47.81 1.34Q47.81 1.68 47.71 1.81Q47.62 1.94 47.57 2.02Q47.52 2.09 47.38 2.14L47.38 2.14Q47.09 2.23 46.90 2.26Q46.70 2.28 46.63 2.28L46.63 2.28Q46.37 2.33 45.74 2.35Q45.12 2.38 43.93 2.38Q42.74 2.38 41.02 2.28L41.02 2.28L41.02 6.70L45.91 6.70Q46.18 6.70 46.40 6.94Q46.63 7.18 46.63 7.46L46.63 7.46Q46.63 8.57 45.70 8.57L45.70 8.57L41.02 8.57L41.11 14.86Q41.11 16.08 40.28 16.08Q39.46 16.08 39.31 14.98L39.31 14.98Q39.24 14.62 39.23 8.87Q39.22 3.12 39.17 2.26L39.17 2.26Q38.28 2.35 38.28 1.25L38.28 1.25Q38.28 0.96 38.52 0.61Q38.76 0.26 38.94 0.24Q39.12 0.22 39.40 0.22Q39.67 0.22 40.75 0.31L40.75 0.31Q42.24 0.46 43.37 0.46ZM53.02 5.04L53.02 5.04Q54.79 5.04 55.88 6.41Q56.98 7.78 56.98 10.15Q56.98 12.53 55.78 14.26Q54.58 15.98 52.73 15.98L52.73 15.98Q50.71 15.98 49.44 14.26Q48.17 12.53 48.17 10.03Q48.17 7.54 49.49 6.29Q50.81 5.04 53.02 5.04ZM55.25 10.42Q55.25 8.50 54.70 7.60Q54.14 6.70 52.75 6.70Q51.36 6.70 50.59 7.55Q49.82 8.40 49.82 9.97Q49.82 11.54 50.64 12.89Q51.46 14.23 52.90 14.23L52.90 14.23Q53.71 14.23 54.29 13.54L54.29 13.54Q55.25 12.34 55.25 10.42ZM60.89 15.10L60.89 15.12Q60.89 15.48 60.55 15.74Q60.22 16.01 59.81 16.01L59.81 16.01Q59.28 16.01 59.28 15.53L59.28 15.53Q59.18 14.40 59.18 6.58L59.18 6.58Q59.18 5.81 60.11 5.38Q61.03 4.94 62.58 4.94Q64.13 4.94 65.29 5.71Q66.46 6.48 66.46 7.56L66.46 7.56Q66.46 8.09 66 8.74Q65.54 9.38 65.03 9.76Q64.51 10.13 63.55 10.66Q62.59 11.18 62.38 11.23L62.38 11.23Q63.89 12.19 65.06 13.32Q66.24 14.45 66.24 15.10Q66.24 15.74 65.66 15.94L65.66 15.94Q65.50 15.98 65.23 15.98Q64.97 15.98 64.56 15.47Q64.15 14.95 63.02 13.98Q61.90 13.01 60.79 12.24L60.79 12.24Q60.84 14.16 60.89 15.10L60.89 15.10ZM60.79 10.10L60.79 10.10Q61.58 10.10 63.17 9.32Q64.75 8.54 64.82 7.87L64.82 7.87Q64.82 7.22 64.10 6.90Q63.38 6.58 62.59 6.58L62.59 6.58Q61.68 6.58 60.82 6.79L60.82 6.79Q60.79 7.94 60.79 10.10ZM76.30 6.98L76.30 6.98L74.35 6.74Q70.46 6.74 70.46 10.63L70.46 10.63Q70.46 12.60 71.64 13.75L71.64 13.75Q72.22 14.35 72.84 14.35Q73.46 14.35 75.02 13.80Q76.58 13.25 76.70 13.25L76.70 13.25Q77.35 13.25 77.35 13.85L77.35 13.85Q77.35 14.35 76.80 14.71L76.80 14.71Q73.80 15.98 72.46 15.98L72.46 15.98Q71.64 15.98 70.85 15.46Q70.06 14.93 69.60 14.09L69.60 14.09Q68.66 12.43 68.66 10.54L68.66 10.54Q68.66 7.99 70.20 6.50Q71.74 5.02 74.14 5.02L74.14 5.02Q75.53 5.02 76.90 5.47L76.90 5.47L76.90 5.50Q77.33 5.76 77.33 6.10Q77.33 6.43 76.98 6.71Q76.63 6.98 76.30 6.98ZM81.43 10.61L81.43 10.61L81.48 13.75Q81.48 14.38 81.46 14.42L81.46 14.42L85.61 14.35Q86.30 14.42 86.30 14.95L86.30 14.95Q86.30 15.96 85.37 15.96L85.37 15.96L80.66 16.01Q80.23 16.01 80.03 15.71Q79.82 15.41 79.80 15.07Q79.78 14.74 79.78 14.33L79.78 14.33L79.78 10.34Q79.46 10.18 79.46 9.84Q79.46 9.50 79.73 9.24L79.73 9.24Q79.66 7.37 79.66 5.83L79.66 5.83Q79.66 4.94 80.74 4.92L80.74 4.92Q81.02 4.92 81.41 4.92L81.41 4.92L85.61 4.99L85.63 4.99Q86.40 5.09 86.40 5.71L86.40 5.71Q86.40 6.19 86.11 6.36L86.11 6.36Q85.49 6.70 83.11 6.70L83.11 6.70Q82.22 6.70 81.34 6.62L81.34 6.62Q81.34 8.78 81.36 9.05L81.36 9.05Q82.30 9.07 85.03 9.07L85.03 9.07Q85.78 9.17 85.78 9.74L85.78 9.74Q85.78 10.03 85.54 10.30Q85.30 10.56 85.02 10.60Q84.74 10.63 83.84 10.63Q82.94 10.63 81.43 10.61ZM101.11 0.07L101.11 0.07Q102.26 0.07 103.40 0.65Q104.54 1.22 104.54 1.94L104.54 1.94Q104.54 3.05 103.63 3.05L103.63 3.05Q103.30 3.05 102.46 2.62Q101.62 2.18 101.04 2.18L101.04 2.18Q98.98 2.18 97.60 4.03Q96.22 5.88 96.22 8.74L96.22 8.74Q96.22 10.87 97.15 12.48Q98.09 14.09 99.37 14.09Q100.66 14.09 101.39 13.24Q102.12 12.38 102.12 11.30L102.12 11.30Q102.12 10.70 102.04 10.31Q101.95 9.91 101.62 9.59Q101.28 9.26 100.73 9.26Q100.18 9.26 99.68 9.02Q99.19 8.78 99.19 8.38Q99.19 7.97 99.43 7.61Q99.67 7.25 100.08 7.18L100.08 7.18Q101.71 7.18 102.28 7.51Q102.84 7.85 103.13 8.06Q103.42 8.28 103.61 8.78Q103.80 9.29 103.91 9.62Q104.02 9.96 104.06 10.70L104.06 10.70Q104.11 11.95 104.11 13.62Q104.11 15.29 103.87 15.67L103.87 15.67Q103.66 15.98 103.15 16.00Q102.65 16.01 102.46 15.79Q102.26 15.58 102.22 14.83L102.22 14.83Q101.64 15.34 100.76 15.68Q99.89 16.03 99.22 16.03L99.22 16.03Q97.10 16.03 95.66 13.79Q94.22 11.54 94.22 8.38L94.22 8.38Q94.22 6.70 94.78 5.08Q95.33 3.46 96.26 2.35L96.26 2.35Q98.23 0.07 101.11 0.07ZM107.33 15.36L107.33 15.36Q107.23 15.96 106.48 15.96Q105.72 15.96 105.72 15.34L105.72 15.34Q105.72 13.92 107.11 9.58L107.11 9.58Q107.74 7.58 108.50 6.26Q109.27 4.94 109.99 4.94L109.99 4.94Q110.38 4.94 110.66 5.40Q110.95 5.86 111.71 7.48Q112.46 9.10 112.97 10.91Q113.47 12.72 114.07 15.34L114.07 15.34Q114.07 15.65 113.86 15.83Q113.64 16.01 113.33 16.01L113.33 16.01Q112.56 16.01 112.37 15.34L112.37 15.34L111.53 12.05Q109.42 12.05 108.14 11.71L108.14 11.71Q107.42 14.35 107.33 15.36ZM109.92 7.15L109.92 7.15Q109.13 8.50 108.62 10.15L108.62 10.15Q109.68 10.44 111.12 10.44L111.12 10.44Q110.66 8.78 109.92 7.15ZM125.16 4.37L125.16 4.37Q125.86 4.37 125.86 5.04L125.86 5.04Q125.93 9.31 125.93 15L125.93 15Q125.93 15.38 125.65 15.70Q125.38 16.01 124.78 16.01Q124.18 16.01 124.18 15.22L124.18 15.22Q124.18 12.67 124.14 11.44Q124.10 10.20 124.10 8.76L124.10 8.76Q123.22 9.84 122.39 10.27Q121.56 10.70 120.19 10.70Q118.82 10.70 118.06 9.96L118.06 9.96Q118.06 14.26 118.01 15L118.01 15Q117.96 16.01 116.88 16.01L116.88 16.01Q116.23 16.01 116.23 15.31L116.23 15.31L116.30 10.87Q116.30 8.71 116.30 7.49L116.30 7.49L116.30 6.14Q116.30 5.81 116.57 5.50Q116.83 5.18 117.18 5.18Q117.53 5.18 117.80 5.34Q118.08 5.50 118.10 5.81L118.10 5.81Q118.15 7.03 118.81 7.99Q119.47 8.95 120.31 8.95L120.31 8.95Q122.74 8.95 123.67 6.34L123.67 6.34Q123.72 6.22 123.88 5.71Q124.03 5.21 124.13 5.02Q124.22 4.82 124.50 4.60Q124.78 4.37 125.16 4.37ZM129.67 10.61L129.67 10.61L129.72 13.75Q129.72 14.38 129.70 14.42L129.70 14.42L133.85 14.35Q134.54 14.42 134.54 14.95L134.54 14.95Q134.54 15.96 133.61 15.96L133.61 15.96L128.90 16.01Q128.47 16.01 128.27 15.71Q128.06 15.41 128.04 15.07Q128.02 14.74 128.02 14.33L128.02 14.33L128.02 10.34Q127.70 10.18 127.70 9.84Q127.70 9.50 127.97 9.24L127.97 9.24Q127.90 7.37 127.90 5.83L127.90 5.83Q127.90 4.94 128.98 4.92L128.98 4.92Q129.26 4.92 129.65 4.92L129.65 4.92L133.85 4.99L133.87 4.99Q134.64 5.09 134.64 5.71L134.64 5.71Q134.64 6.19 134.35 6.36L134.35 6.36Q133.73 6.70 131.35 6.70L131.35 6.70Q130.46 6.70 129.58 6.62L129.58 6.62Q129.58 8.78 129.60 9.05L129.60 9.05Q130.54 9.07 133.27 9.07L133.27 9.07Q134.02 9.17 134.02 9.74L134.02 9.74Q134.02 10.03 133.78 10.30Q133.54 10.56 133.26 10.60Q132.98 10.63 132.08 10.63Q131.18 10.63 129.67 10.61Z" transform="translate(51, 6.496)"></path></svg>